<svg xmlns="http://www.w3.org/2000/svg" width="720" height="450" viewBox="0 0 720 450" role="img" aria-label="Amsterdam Characters preview">
  <defs>
    <linearGradient id="bg" x1="0" y1="0" x2="0" y2="1">
      <stop offset="0" stop-color="#ffb27a"/>
      <stop offset="1" stop-color="#ff7e5c"/>
    </linearGradient>
    <linearGradient id="water" x1="0" y1="0" x2="0" y2="1">
      <stop offset="0" stop-color="#3a6ea5"/>
      <stop offset="1" stop-color="#2b557f"/>
    </linearGradient>
  </defs>
  <rect width="720" height="450" fill="url(#bg)"/>
  <circle cx="600" cy="90" r="46" fill="#fff3d6" opacity="0.85"/>
  <!-- canal houses -->
  <g>
    <rect x="120" y="150" width="80" height="170" rx="6" fill="#f4e3c1"/>
    <path d="M120 150 L160 116 L200 150 Z" fill="#d98b53"/>
    <rect x="210" y="120" width="80" height="200" rx="6" fill="#e8cfa6"/>
    <path d="M210 120 L210 96 L290 96 L290 120 Z" fill="#c2703f"/>
    <rect x="300" y="160" width="74" height="160" rx="6" fill="#f4e3c1"/>
    <path d="M300 160 L337 128 L374 160 Z" fill="#d98b53"/>
    <rect x="384" y="130" width="80" height="190" rx="6" fill="#e8cfa6"/>
    <path d="M384 130 L384 104 L464 104 L464 130 Z" fill="#c2703f"/>
    <rect x="474" y="158" width="78" height="162" rx="6" fill="#f4e3c1"/>
    <path d="M474 158 L513 126 L552 158 Z" fill="#d98b53"/>
    <!-- windows -->
    <g fill="#7c553a" opacity="0.55">
      <rect x="138" y="176" width="18" height="22" rx="3"/><rect x="166" y="176" width="18" height="22" rx="3"/>
      <rect x="230" y="150" width="18" height="24" rx="3"/><rect x="258" y="150" width="18" height="24" rx="3"/>
      <rect x="404" y="160" width="18" height="24" rx="3"/><rect x="432" y="160" width="18" height="24" rx="3"/>
    </g>
  </g>
  <!-- canal -->
  <rect x="0" y="320" width="720" height="130" fill="url(#water)"/>
  <g stroke="#5b86b8" stroke-width="4" opacity="0.6" fill="none">
    <path d="M40 360 q40 -12 80 0 t80 0 t80 0 t80 0"/>
    <path d="M60 396 q40 -12 80 0 t80 0 t80 0 t80 0"/>
  </g>
  <!-- friendly character -->
  <g transform="translate(560,300)">
    <circle cx="0" cy="0" r="54" fill="#ffe1c2"/>
    <circle cx="-18" cy="-8" r="8" fill="#3a2a22"/>
    <circle cx="18" cy="-8" r="8" fill="#3a2a22"/>
    <path d="M-20 18 q20 22 40 0" stroke="#3a2a22" stroke-width="5" fill="none" stroke-linecap="round"/>
    <path d="M-54 -10 a54 54 0 0 1 108 0 q-54 -34 -108 0Z" fill="#5a3b8b"/>
  </g>
  <text x="40" y="64" font-family="Poppins, Verdana, sans-serif" font-size="40" font-weight="700" fill="#fff8ef">Amsterdam Characters</text>
</svg>
